<svg xmlns="http://www.w3.org/2000/svg" width="64" height="58.634" viewBox="0 0 64 58.634">
  <path id="_012-love" data-name="012-love" d="M32,80.1h0a16.483,16.483,0,0,1-10.068-3.45C12.11,69.017.332,56.337,0,39.273c.051-15.6,17.607-23.29,29.314-13.37A16.3,16.3,0,0,1,32,28.856,16.308,16.308,0,0,1,34.686,25.9C46.4,15.979,63.95,23.685,64,39.273,63.668,56.337,51.89,69.017,42.069,76.65A16.485,16.485,0,0,1,32,80.1Zm0-5h0a11.459,11.459,0,0,0,7-2.4C47.957,65.741,58.7,54.28,59,39.2A12.522,12.522,0,0,0,46.75,26.473c-7.011,0-12.25,5.214-12.25,9.875a2.5,2.5,0,0,1-5,0c0-4.662-5.239-9.875-12.25-9.875A12.522,12.522,0,0,0,5,39.2C5.3,54.28,16.043,65.741,25,72.7a11.46,11.46,0,0,0,7,2.4ZM25.148,45.942A2.772,2.772,0,0,1,27.5,42.614c3.718-.376,4.016,5.99.669,6.473C26.695,49.242,25.344,47.834,25.148,45.942Zm10.811,3.146c1.471.155,2.823-1.254,3.018-3.146.44-4.051-4.927-4.623-5.328-.561C33.453,47.273,34.487,48.932,35.959,49.087Zm-10.4,3.871a2.8,2.8,0,0,0-3.211-2.568c-3.746.654-2.3,6.876,1.112,6.429C24.946,56.565,25.886,54.837,25.561,52.958ZM32,52.224c-3.231,0-6.875,8.23-6.875,10.218,0,2.972,2.994,3.033,6.875,3.033s6.875-.061,6.875-3.033C38.875,60.505,35.231,52.224,32,52.224Zm9.775-1.96c-3.741-.627-4.488,5.713-1.111,6.429,1.484.253,2.951-1.065,3.276-2.944a2.781,2.781,0,0,0-2.164-3.484Z" transform="translate(0 -21.466)"/>
</svg>
