<svg xmlns="http://www.w3.org/2000/svg" width="64" height="64" viewBox="0 0 64 64">
  <path id="_016-veterinarian" data-name="016-veterinarian" d="M16.6,37A11.932,11.932,0,0,0,18.4,28.118c-.99-5.74-5.518-9.256-10.766-8.359a8.875,8.875,0,0,0-5.81,3.613A10.408,10.408,0,0,0,.281,31.221c.8,5.306,5.479,10.215,10.926,9.284A8.349,8.349,0,0,0,16.6,37Zm-4.083-2.886a3.4,3.4,0,0,1-2.149,1.466c-4.854.729-8-9.79-1.886-10.892,2.515-.429,4.473,1.252,5,4.281A7.02,7.02,0,0,1,12.513,34.111ZM62.369,23.247a8.876,8.876,0,0,0-5.81-3.613c-5.249-.9-9.776,2.619-10.766,8.359-1.006,5.354,1.742,11.433,7.2,12.387,5.447.929,10.122-3.977,10.925-9.284a10.408,10.408,0,0,0-1.545-7.849Zm-3.383,7c-.514,2.978-2.588,5.247-4.677,5.247a2.842,2.842,0,0,1-.478-.04,3.4,3.4,0,0,1-2.149-1.466,7.02,7.02,0,0,1-.961-5.144c.523-3.029,2.481-4.71,5-4.281a3.858,3.858,0,0,1,2.569,1.572,5.41,5.41,0,0,1,.7,4.114ZM41.586,21.2c5.559.532,9.7-4.636,10.194-10.093.6-5.847-2.774-10.5-8.013-11.055-5.432-.6-9.633,3.684-10.1,9.147C32.993,14.511,36.14,20.645,41.586,21.2ZM38.643,9.71a5.652,5.652,0,0,1,1.822-3.894,3.7,3.7,0,0,1,2.77-.79c2.448.261,3.883,2.5,3.569,5.578A7.212,7.212,0,0,1,44.45,15.44a3.223,3.223,0,0,1-2.334.795C39.9,16,38.307,13.01,38.643,9.71Zm-21.7,9.607A8.174,8.174,0,0,0,22.973,21.2a8.5,8.5,0,0,0,6.261-4.178c4.206-6.78.6-17.848-8.443-16.971-9.365.956-10.487,13.9-3.845,19.262ZM21.32,5.027A3.7,3.7,0,0,1,24.1,5.82c3.153,2.5,2.085,10.033-1.661,10.414a3.241,3.241,0,0,1-2.347-.8A7.208,7.208,0,0,1,17.74,10.6c-.314-3.075,1.124-5.316,3.58-5.577ZM32.222,27c-9.679.117-18.7,20.25-19.127,27.168.029,9.549,9.957,9.944,19.24,9.821h.013c6.936-.126,13.431.321,17.2-4.093a8.945,8.945,0,0,0,1.8-5.728C50.927,47.326,41.84,27.076,32.222,27Zm.118,31.991c-10.688,0-14.244-.7-14.244-4.822,0-1.69,1.923-7.413,5.055-12.9,3.218-5.634,6.779-9.275,9.072-9.275,3.41.308,6.958,5.7,9.07,9.319,3.133,5.5,5.056,11.191,5.056,12.851C46.349,58.321,43.023,58.987,32.341,58.987ZM39.6,48.24a2.5,2.5,0,0,1-2.5,2.5H34.6v2.5a2.5,2.5,0,0,1-5,0v-2.5H27.1a2.5,2.5,0,0,1,0-5h2.5v-2.5a2.5,2.5,0,0,1,5,0v2.5h2.5A2.5,2.5,0,0,1,39.6,48.24Z" transform="translate(-0.097 0)"/>
</svg>
