<svg xmlns="http://www.w3.org/2000/svg" width="64" height="64.024" viewBox="0 0 64 64.024">
  <path id="_018-pet" data-name="018-pet" d="M43.011,59.881a2.5,2.5,0,0,1-1.787,3.052,35.158,35.158,0,0,1-8.878,1.092h-.009a30.878,30.878,0,0,1-15.9-4A20.122,20.122,0,0,1,7.093,47.787a9.192,9.192,0,0,1,7.893-11.53q.081-.012.162-.018A31.984,31.984,0,0,1,27.2,37.6c4.36-1.572,13.2-.634,12.158,3.072a11.455,11.455,0,0,1-4.607,5.114,4.256,4.256,0,0,0,4.219,3.736,2.5,2.5,0,1,1,0,5,9.226,9.226,0,0,1-6.751-2.936,9.226,9.226,0,0,1-6.751,2.936,2.5,2.5,0,1,1,0-5,4.257,4.257,0,0,0,4.208-3.655,13.787,13.787,0,0,1-3.614-3.379,26.986,26.986,0,0,0-10.44-1.269,4.188,4.188,0,0,0-3.073,1.694,5.172,5.172,0,0,0-.617,3.592c2.079,7.838,9.711,12.518,20.415,12.519a30.167,30.167,0,0,0,7.617-.929A2.5,2.5,0,0,1,43.011,59.881ZM62.168,11.236C59.458,7.416,51.167-.317,46.342.01c-3.224,0-6.044,1.612-8.158,4.662a1.51,1.51,0,0,1-1.709.613,15.464,15.464,0,0,0-4.386-.774,15.464,15.464,0,0,0-4.386.774,1.51,1.51,0,0,1-1.709-.613C23.881,1.622,21.06.01,17.836.01c-2.58,0-5.738,1.542-9.388,4.583A42.28,42.28,0,0,0,2.01,11.236,10.049,10.049,0,0,0,4.182,25.214,9.937,9.937,0,0,0,9.118,27.1q-.574,1.522-1.049,3.06a2.5,2.5,0,1,0,4.78,1.471,48.37,48.37,0,0,1,2.213-5.81,9.965,9.965,0,0,0,3.046-2.706,25.127,25.127,0,0,0,3.675-6.169,2.5,2.5,0,0,0-4.643-1.857,21.186,21.186,0,0,1-3.018,5.006,4.968,4.968,0,0,1-3.269,1.99,5.025,5.025,0,0,1-5.71-4.174,4.968,4.968,0,0,1,.9-3.719,38.074,38.074,0,0,1,5.6-5.752c4.958-3.989,7.374-4.748,10.235-.914a6.478,6.478,0,0,0,7.374,2.517,10.115,10.115,0,0,1,2.831-.52,10.115,10.115,0,0,1,2.831.52,6.478,6.478,0,0,0,7.374-2.518c2.855-3.828,5.273-3.081,10.235.914a38.08,38.08,0,0,1,5.6,5.753,5,5,0,1,1-8.075,5.9,21.189,21.189,0,0,1-3.018-5.006A2.5,2.5,0,0,0,42.4,16.942a25.125,25.125,0,0,0,3.675,6.17,10,10,0,0,0,16.1-11.876ZM43.457,27.888a3.126,3.126,0,0,1-6.231.507A3.126,3.126,0,0,1,43.457,27.888ZM23.709,25.026a3.126,3.126,0,1,0,.507,6.231A3.137,3.137,0,0,0,23.709,25.026ZM61.6,58.9l-.09,0c-.415.015-3.009.123-3.762.123a6.835,6.835,0,0,1-6.9-6.751v-10a6.835,6.835,0,0,1,6.9-6.751c.929,0,3.744.123,3.744.123a2.5,2.5,0,0,0,.213-5c-4.627-.273-8.451-.425-12.328,3.3a11.582,11.582,0,0,0-3.532,8.329v10A11.582,11.582,0,0,0,49.374,60.6a11.9,11.9,0,0,0,8.371,3.424c.858,0,3.535-.112,3.94-.127a2.5,2.5,0,0,0-.087-5Zm0-18.879h-4a2.5,2.5,0,0,0,0,5h4A2.5,2.5,0,0,0,61.6,40.019Zm0,9.5h-4a2.5,2.5,0,0,0,0,5h4A2.5,2.5,0,0,0,61.6,49.521Z" transform="translate(-0.096 0)"/>
</svg>
