<svg xmlns="http://www.w3.org/2000/svg" width="64" height="61.335" viewBox="0 0 64 61.335">
  <path id="_025-pet_bowl" data-name="025-pet bowl" d="M52.74,72H11.261A11.3,11.3,0,0,1,.1,59.358a80.539,80.539,0,0,1,5.434-20.77,12.46,12.46,0,0,1,11.537-7.7H47.655a12.514,12.514,0,0,1,11.8,8.4,91.345,91.345,0,0,1,4.467,20.3A11.3,11.3,0,0,1,52.74,72ZM17.073,35.889a7.476,7.476,0,0,0-6.922,4.618A75.471,75.471,0,0,0,5.062,59.974,6.28,6.28,0,0,0,11.261,67H52.74a6.248,6.248,0,0,0,6.214-6.9,86.27,86.27,0,0,0-4.216-19.174,7.512,7.512,0,0,0-7.084-5.042ZM38.748,60.721c0,2.97-2.945,3.031-6.823,3.031S25,63.691,25,60.721c0-1.987,3.643-10.213,6.872-10.213S38.748,58.786,38.748,60.721Zm-6.82,3.031h0ZM25.44,51.242c-.674-4.026-6.087-3.113-5.372.915C20.99,56.641,26.073,55.783,25.44,51.242Zm16.207-2.692c-3.739-.626-4.486,5.711-1.111,6.426,1.483.253,2.949-1.065,3.274-2.943a2.78,2.78,0,0,0-2.163-3.483Zm-5.814-1.177c1.471.155,2.821-1.253,3.017-3.144A2.771,2.771,0,0,0,36.5,40.9C32.785,40.527,32.488,46.89,35.833,47.373Zm-7.789,0c3.347-.485,3.046-6.846-.669-6.47a2.77,2.77,0,0,0-2.348,3.326C25.222,46.12,26.573,47.528,28.044,47.373Zm19.417-28.8c-1.553-7.959-11.783-10.746-17-4.459a7.656,7.656,0,0,0-11.09,4.8,7.825,7.825,0,0,0-5.6,6.769,2.5,2.5,0,1,0,4.98.426,2.861,2.861,0,0,1,2.841-2.517,2.5,2.5,0,0,0,2.485-2.24s.025-.285.025-.371A2.67,2.67,0,0,1,29.016,19.4a2.5,2.5,0,0,0,4.439-.578,4.643,4.643,0,0,1,4.36-3.173,4.794,4.794,0,0,1,4.806,4.658,2.5,2.5,0,0,0,1.933,2.434,3.514,3.514,0,0,1,2.19,2.646v.633a2.5,2.5,0,0,0,5,0v-.633a8.423,8.423,0,0,0-4.282-6.81Z" transform="translate(0 -10.665)"/>
</svg>
